<svg xmlns="http://www.w3.org/2000/svg" width="19.402" height="24.978" viewBox="0 0 19.402 24.978">
  <g id="maps-and-flags_2_" data-name="maps-and-flags (2)" transform="translate(0)">
    <path id="Path_565" data-name="Path 565" d="M76.553,9.7c0,7.768-8.769,14.962-8.769,14.962a1.534,1.534,0,0,1-1.863,0S57.151,17.469,57.151,9.7a9.7,9.7,0,0,1,19.4,0Z" transform="translate(-57.151)" fill="#ee3840"/>
    <path id="Path_1508" data-name="Path 1508" d="M76.553,9.7c0,7.768-8.769,14.962-8.769,14.962a1.534,1.534,0,0,1-1.863,0S57.151,17.469,57.151,9.7a9.7,9.7,0,0,1,19.4,0Z" transform="translate(-57.151)" fill="#ee3840"/>
    <path id="Path_566" data-name="Path 566" d="M160.84,108.567a4.881,4.881,0,1,1,4.881-4.881A4.886,4.886,0,0,1,160.84,108.567Z" transform="translate(-151.139 -93.986)" fill="#fff"/>
  </g>
</svg>
