<svg xmlns="http://www.w3.org/2000/svg" width="25.5" height="21.875" viewBox="0 0 25.5 21.875">
  <g id="download_1_" data-name="download (1)" transform="translate(0 -3.625)">
    <path id="Path_80" data-name="Path 80" d="M139.7,19.255a3.187,3.187,0,0,0,4.508,0h0l3.412-3.412a1.063,1.063,0,0,0-1.5-1.5l-3.109,3.11V4.688a1.063,1.063,0,0,0-1.063-1.063h0a1.062,1.062,0,0,0-1.062,1.062l0,12.746-3.092-3.09a1.063,1.063,0,1,0-1.5,1.5Z" transform="translate(-129.203)" fill="#fff"/>
    <path id="Path_81" data-name="Path 81" d="M24.438,341.333h0a1.062,1.062,0,0,0-1.062,1.062v4.25a1.062,1.062,0,0,1-1.062,1.063H3.188a1.062,1.062,0,0,1-1.062-1.062V342.4a1.062,1.062,0,0,0-1.062-1.062h0A1.062,1.062,0,0,0,0,342.4v4.25a3.188,3.188,0,0,0,3.188,3.188H22.313a3.188,3.188,0,0,0,3.188-3.188V342.4A1.063,1.063,0,0,0,24.438,341.333Z" transform="translate(0 -324.333)" fill="#fff"/>
  </g>
</svg>
