<svg xmlns="http://www.w3.org/2000/svg" width="45.679" height="45.688" viewBox="0 0 45.679 45.688">
  <path id="home-location-alt_1_" data-name="home-location-alt (1)" d="M45.679,18.512V36.167a9.528,9.528,0,0,1-9.516,9.516h-1.9a1.9,1.9,0,1,1,0-3.807h1.9a5.71,5.71,0,0,0,5.71-5.71V18.512a5.71,5.71,0,0,0-2.516-4.734L26.033,4.789a5.67,5.67,0,0,0-6.387,0L6.323,13.778a5.71,5.71,0,0,0-2.516,4.734V36.167a5.71,5.71,0,0,0,5.71,5.71h1.9a1.9,1.9,0,1,1,0,3.807h-1.9A9.528,9.528,0,0,1,0,36.167V18.512a9.5,9.5,0,0,1,4.187-7.889L17.51,1.631a9.48,9.48,0,0,1,10.647,0L41.48,10.623A9.517,9.517,0,0,1,45.679,18.512ZM36.163,28.567a13.232,13.232,0,0,1-3.9,9.419l-6.69,6.544a3.927,3.927,0,0,1-5.462,0L13.433,38a13.323,13.323,0,1,1,22.729-9.435Zm-3.807,0A9.516,9.516,0,1,0,16.11,35.295l6.662,6.513,6.814-6.528A9.437,9.437,0,0,0,32.356,28.567Zm-3.807-.013a5.71,5.71,0,1,1-5.71-5.71A5.71,5.71,0,0,1,28.549,28.553Z" transform="translate(0 0.004)" fill="#fff"/>
</svg>
