<svg xmlns="http://www.w3.org/2000/svg" width="44.533" height="44.531" viewBox="0 0 44.533 44.531">
  <path id="pencil-ruler" d="M44.533,34.486a7.372,7.372,0,0,1-2.175,5.247l-2.624,2.624a7.421,7.421,0,0,1-10.5,0l-4.991-4.991a1.855,1.855,0,0,1,2.624-2.624l4.991,4.991a3.8,3.8,0,0,0,5.249,0l2.624-2.624a3.709,3.709,0,0,0,0-5.247l-3.583-3.585L33.526,30.9A1.855,1.855,0,0,1,30.9,28.277l3.937-3.936a1.853,1.853,0,0,1,2.624,0l4.895,4.9a7.365,7.365,0,0,1,2.175,5.247ZM7.166,20.286A1.855,1.855,0,1,0,9.79,17.662L4.8,12.671a3.709,3.709,0,0,1,0-5.247L7.422,4.8a3.8,3.8,0,0,1,5.249,0l3.585,3.585-2.626,2.624a1.855,1.855,0,0,0,2.624,2.624L20.192,9.7a1.855,1.855,0,0,0,0-2.624l-4.9-4.9a7.6,7.6,0,0,0-10.5,0L2.175,4.8a7.418,7.418,0,0,0,0,10.495l4.991,4.991Zm35.372-8.654L12.9,41.27a11.048,11.048,0,0,1-7.871,3.262H1.856A1.855,1.855,0,0,1,0,42.676V39.507a11.057,11.057,0,0,1,3.26-7.871L32.9,1.994a6.814,6.814,0,0,1,9.636,9.636Zm-9.649,4.4L28.5,11.643,5.884,34.26a7.378,7.378,0,0,0-2.173,5.247v1.314H5.025a7.365,7.365,0,0,0,5.247-2.175L32.891,16.029ZM39.913,4.619a3.108,3.108,0,0,0-4.388,0l-4.4,4.4,4.388,4.388,4.4-4.4a3.11,3.11,0,0,0,0-4.388Z" transform="translate(0 -0.001)"/>
</svg>
