<svg xmlns="http://www.w3.org/2000/svg" width="45.685" height="45.688" viewBox="0 0 45.685 45.688">
  <path id="ruler-triangle" d="M43.441,32.7,12.982,2.244A7.477,7.477,0,0,0,4.7.6,7.481,7.481,0,0,0,0,7.621V36.153a9.54,9.54,0,0,0,9.53,9.53H38.062A7.605,7.605,0,0,0,43.439,32.7Zm-1.867,6.833a3.694,3.694,0,0,1-3.51,2.343H9.53a5.73,5.73,0,0,1-5.723-5.723V7.621a3.693,3.693,0,0,1,2.345-3.51,3.905,3.905,0,0,1,1.5-.306,3.7,3.7,0,0,1,2.642,1.131L13.357,8,9.726,11.633a1.9,1.9,0,1,0,2.691,2.691l3.631-3.631,2.79,2.79-3.631,3.631A1.9,1.9,0,1,0,17.9,19.806l3.631-3.631,2.693,2.691L20.592,22.5a1.9,1.9,0,1,0,2.691,2.691l3.631-3.631,2.691,2.691L25.974,27.88a1.9,1.9,0,1,0,2.691,2.691L32.3,26.94l2.691,2.691-3.631,3.631a1.9,1.9,0,1,0,2.691,2.691l3.631-3.631,3.066,3.066a3.7,3.7,0,0,1,.824,4.142ZM20.38,31.015a1.9,1.9,0,0,1-1.346,3.249h-5.71a1.9,1.9,0,0,1-1.9-1.9V26.65A1.9,1.9,0,0,1,14.671,25.3l5.71,5.71Z" transform="translate(0 0.005)" fill="#fff"/>
</svg>
