<svg xmlns="http://www.w3.org/2000/svg" width="14.693" height="12.463" viewBox="0 0 14.693 12.463">
  <g id="envelope" transform="translate(0 0)">
    <path id="Path_36" data-name="Path 36" d="M14.665,5.542,9.512,10.211a3.3,3.3,0,0,1-4.33,0L.028,5.542C.02,5.63,0,5.709,0,5.8v6.655a2.931,2.931,0,0,0,3.061,2.773h8.571a2.931,2.931,0,0,0,3.061-2.773V5.8C14.694,5.709,14.674,5.63,14.665,5.542Z" transform="translate(0 -2.761)" fill="#6eb2a6"/>
    <path id="Path_37" data-name="Path 37" d="M8.934,8.069l5.592-5.593A3.053,3.053,0,0,0,11.921,1H3.35A3.053,3.053,0,0,0,.744,2.476L6.336,8.069a1.841,1.841,0,0,0,2.6,0Z" transform="translate(-0.289 -1)" fill="#6eb2a6"/>
  </g>
</svg>
