<svg xmlns="http://www.w3.org/2000/svg" width="13.067" height="13.089" viewBox="0 0 13.067 13.089">
  <path id="phone-call" d="M12.557,6a.545.545,0,0,1-.545-.545A4.366,4.366,0,0,0,7.649,1.09.545.545,0,0,1,7.649,0,5.459,5.459,0,0,1,13.1,5.452.545.545,0,0,1,12.557,6Zm-1.636-.545A3.272,3.272,0,0,0,7.649,2.18a.545.545,0,0,0,0,1.091A2.181,2.181,0,0,1,9.83,5.452a.545.545,0,1,0,1.091,0Zm1.19,6.632.5-.572a1.69,1.69,0,0,0,0-2.387C12.59,9.109,11.279,8.1,11.279,8.1a1.69,1.69,0,0,0-2.334,0l-1.039.876a6.97,6.97,0,0,1-3.78-3.786L5,4.156A1.69,1.69,0,0,0,5,1.821S3.991.511,3.974.494A1.68,1.68,0,0,0,1.616.469l-.627.545c-3.7,4.3,4.273,12.213,8.712,12.071a3.356,3.356,0,0,0,2.411-1Z" transform="translate(-0.035 0.002)" fill="#6eb2a6"/>
</svg>
