<svg xmlns="http://www.w3.org/2000/svg" width="23.999" height="23.999" viewBox="0 0 23.999 23.999">
  <path id="comment-dots" d="M13.5,12A1.5,1.5,0,1,1,12,10.5,1.5,1.5,0,0,1,13.5,12ZM17,10.5A1.5,1.5,0,1,0,18.5,12,1.5,1.5,0,0,0,17,10.5Zm-10,0A1.5,1.5,0,1,0,8.5,12,1.5,1.5,0,0,0,7,10.5Zm17,1.84V19a5.006,5.006,0,0,1-5,5H13.083C6.082,24,.47,19.208.03,12.854A12,12,0,0,1,12.836.029,12.209,12.209,0,0,1,24,12.341Zm-2,0A10.2,10.2,0,0,0,12.7,2.024C12.472,2.008,12.243,2,12.015,2a10,10,0,0,0-9.99,10.715C2.4,18.1,7.049,22,13.084,22H19a3,3,0,0,0,3-3v-6.66Z" transform="translate(-0.001 -0.001)"/>
</svg>
