<svg xmlns="http://www.w3.org/2000/svg" width="24.426" height="22.39" viewBox="0 0 24.426 22.39">
  <path id="envelope_7_" data-name="envelope (7)" d="M19.337,1H5.089A5.1,5.1,0,0,0,0,6.089V18.3A5.1,5.1,0,0,0,5.089,23.39H19.337A5.1,5.1,0,0,0,24.426,18.3V6.089A5.1,5.1,0,0,0,19.337,1ZM5.089,3.035H19.337a3.053,3.053,0,0,1,2.829,1.92l-7.794,7.795a3.06,3.06,0,0,1-4.319,0L2.259,4.956a3.053,3.053,0,0,1,2.829-1.92ZM19.337,21.355H5.089A3.053,3.053,0,0,1,2.035,18.3V7.615L8.614,14.19a5.1,5.1,0,0,0,7.2,0L22.39,7.615V18.3A3.053,3.053,0,0,1,19.337,21.355Z" transform="translate(0 -1)"/>
</svg>
