<svg xmlns="http://www.w3.org/2000/svg" width="24.386" height="24.385" viewBox="0 0 24.386 24.385">
  <path id="phone-call_7_" data-name="phone-call (7)" d="M13.23,1.018A1.018,1.018,0,0,1,14.248,0,10.189,10.189,0,0,1,24.425,10.177a1.018,1.018,0,0,1-2.035,0,8.151,8.151,0,0,0-8.142-8.142A1.018,1.018,0,0,1,13.23,1.018Zm1.018,5.089a4.071,4.071,0,0,1,4.071,4.071,1.018,1.018,0,0,0,2.035,0,6.113,6.113,0,0,0-6.106-6.106,1.018,1.018,0,0,0,0,2.035ZM23.5,17.036a3.155,3.155,0,0,1,0,4.456l-.926,1.068C14.24,30.539-6.043,10.261,1.814,1.9L2.984.881a3.136,3.136,0,0,1,4.4.041C7.42.954,9.305,3.4,9.305,3.4A3.155,3.155,0,0,1,9.3,7.761L8.12,9.243a13.008,13.008,0,0,0,7.054,7.068l1.491-1.186a3.155,3.155,0,0,1,4.357-.006S23.47,17,23.5,17.036Zm-1.4,1.48s-2.435-1.874-2.467-1.905a1.12,1.12,0,0,0-1.576,0c-.027.028-2.08,1.664-2.08,1.664a1.018,1.018,0,0,1-1,.155A15.275,15.275,0,0,1,6,9.465a1.018,1.018,0,0,1,.148-1.018s1.636-2.054,1.663-2.08a1.12,1.12,0,0,0,0-1.576C7.783,4.76,5.909,2.323,5.909,2.323a1.12,1.12,0,0,0-1.537.04L3.2,3.38c-5.742,6.9,11.835,23.507,17.886,17.789l.927-1.069a1.141,1.141,0,0,0,.087-1.585Z" transform="translate(-0.039 0.002)"/>
</svg>
