<svg xmlns="http://www.w3.org/2000/svg" width="47.271" height="47.271" viewBox="0 0 47.271 47.271">
  <path id="house-building_1_" data-name="house-building (1)" d="M37.423,29.544h-1.97a1.97,1.97,0,0,1,0-3.939h1.97a1.97,1.97,0,1,1,0,3.939Zm1.97,5.909a1.968,1.968,0,0,0-1.97-1.97h-1.97a1.97,1.97,0,0,0,0,3.939h1.97A1.968,1.968,0,0,0,39.392,35.453ZM31.514,11.818a1.968,1.968,0,0,0-1.97-1.97h-1.97a1.97,1.97,0,0,0,0,3.939h1.97A1.968,1.968,0,0,0,31.514,11.818Zm7.878,0a1.968,1.968,0,0,0-1.97-1.97h-1.97a1.97,1.97,0,0,0,0,3.939h1.97A1.968,1.968,0,0,0,39.392,11.818Zm0,7.878a1.968,1.968,0,0,0-1.97-1.97h-1.97a1.97,1.97,0,0,0,0,3.939h1.97A1.968,1.968,0,0,0,39.392,19.7Zm7.878,17.726V9.848A9.859,9.859,0,0,0,37.423,0H27.574a9.859,9.859,0,0,0-9.848,9.848,1.97,1.97,0,0,0,3.939,0,5.916,5.916,0,0,1,5.909-5.909h9.848a5.916,5.916,0,0,1,5.909,5.909V37.423a5.916,5.916,0,0,1-5.909,5.909h-1.97a1.97,1.97,0,0,0,0,3.939h1.97A9.859,9.859,0,0,0,47.271,37.423Zm-15.757.985V30.23a9.792,9.792,0,0,0-3.78-7.756l-5.909-4.627a9.835,9.835,0,0,0-12.137,0L3.78,22.471A9.789,9.789,0,0,0,0,30.228v8.178a8.874,8.874,0,0,0,8.863,8.863H22.65a8.874,8.874,0,0,0,8.863-8.863ZM19.4,20.951l5.909,4.625a5.882,5.882,0,0,1,2.267,4.654v8.178a4.928,4.928,0,0,1-4.924,4.924H8.863a4.928,4.928,0,0,1-4.924-4.924V30.23a5.879,5.879,0,0,1,2.267-4.654l5.909-4.623a5.9,5.9,0,0,1,7.284,0Zm.3,14.5V31.514a1.97,1.97,0,0,0-1.97-1.97H13.787a1.97,1.97,0,0,0-1.97,1.97v3.939a1.97,1.97,0,0,0,1.97,1.97h3.939A1.97,1.97,0,0,0,19.7,35.453Z" fill="#fff"/>
</svg>
