<svg xmlns="http://www.w3.org/2000/svg" width="51.557" height="51.557" viewBox="0 0 51.557 51.557">
  <path id="map-marker_1_" data-name="map-marker (1)" d="M25.778,25.778a8.593,8.593,0,1,0-8.593-8.593A8.593,8.593,0,0,0,25.778,25.778Zm0-12.889a4.3,4.3,0,1,1-4.3,4.3A4.3,4.3,0,0,1,25.778,12.889Zm18.6,6.782-1.545-.513a17.169,17.169,0,1,0-34.06.374A10.838,10.838,0,0,0,3.3,22.324,10.625,10.625,0,0,0,0,30.075v8.754A10.769,10.769,0,0,0,7.734,49.14L13.9,51.073a10.7,10.7,0,0,0,3.2.483,10.9,10.9,0,0,0,2.911-.4l12.417-3.673a6.417,6.417,0,0,1,3.379,0L40.932,49.2a8.593,8.593,0,0,0,10.625-8.341V29.8a10.773,10.773,0,0,0-7.175-10.131ZM16.666,8.082a12.908,12.908,0,0,1,18.249,18.26l-7.633,7.422a2.131,2.131,0,0,1-2.984,0l-7.633-7.39a12.975,12.975,0,0,1,0-18.292ZM47.26,40.861a4.277,4.277,0,0,1-1.641,3.377,4.23,4.23,0,0,1-3.493.849l-5.038-1.693a10.79,10.79,0,0,0-5.837-.034L18.827,47.028a6.445,6.445,0,0,1-3.639-.062L8.971,45.033a6.473,6.473,0,0,1-4.674-6.2V30.075a6.367,6.367,0,0,1,1.976-4.647A6.5,6.5,0,0,1,9.858,23.7,17.231,17.231,0,0,0,13.65,29.43l7.663,7.418a6.408,6.408,0,0,0,8.967,0l7.654-7.439a17.1,17.1,0,0,0,3.895-6.06l1.154.382A6.457,6.457,0,0,1,47.26,29.8Z" transform="translate(0)" fill="#fff"/>
</svg>
